# xmcd
#
# Track frame offsets:
# 150
# 18150
# 61499
# 100120
# 193759
# 241159
# 274834
# 318721
#
# Disc length: 4708 seconds
#
#
# Revision: 0
# Processed by: cddbd v1.5.2PL0 Copyright (c) Steve Scherf et al.
# Submitted via: Nero 7, 11, 10, 0 
#
DISCID=6a126208
DTITLE=Little Milton - Live At The North Atlantic Blues Festival - His Last Concert
DYEAR=2005
DGENRE=Blues
TTITLE0=Still Some Meat Left On This Bone
TTITLE1=Just One Moment
TTITLE2=I Don't Believe In Ghosts
TTITLE3=Medley
TTITLE4=I Wouldn't Take Nothin' For Your Love
TTITLE5=My Dog And Me
TTITLE6=The Blues Is Alright
TTITLE7=Shake Rattle and Roll
EXTD=
EXTT0=Still Some Meat Left On This Bone
EXTT1=Just One Moment
EXTT2=I Don't Believe In Ghosts
EXTT3=Medley
EXTT4=I Wouldn't Take Nothin' For Your Love
EXTT5=My Dog And Me
EXTT6=The Blues Is Alright
EXTT7=Shake Rattle and Roll
PLAYORDER=
